Coordinates
version=1
nRows=9
nColumns=24
inDegrees=yes

Units are S.I. units (second, meters, Newtons, ...)
Angles are in degrees.

endheader
time	pelvis_tilt	pelvis_list	pelvis_rotation	pelvis_tx	pelvis_ty	pelvis_tz	hip_flexion_r	hip_adduction_r	hip_rotation_r	knee_angle_r	ankle_angle_r	subtalar_angle_r	mtp_angle_r	hip_flexion_l	hip_adduction_l	hip_rotation_l	knee_angle_l	ankle_angle_l	subtalar_angle_l	mtp_angle_l	lumbar_extension	lumbar_bending	lumbar_rotation
      7.40000000	     -9.77979744	     -2.38501004	      6.99284572	     -1.27314890	     -0.03160633	      2.06419155	     33.58576543	      0.74374382	    -14.99663094	    -11.71308414	     -2.59246041	      2.27215790	     12.11623536	     -4.28494974	     -1.13364471	     -2.74812530	    -18.86085740	      7.09355890	      8.36204437	     16.83957520	      6.24105629	      1.94817249	     -6.78725400
      7.41000000	     -9.90695843	     -2.97357541	      7.03666265	     -1.25784776	     -0.03271836	      2.06488278	     33.68726333	      1.28769024	    -14.92359497	    -13.08523623	     -3.48291785	      0.79870388	      6.23151113	     -3.85468646	     -2.12643476	     -3.07784449	    -20.83938122	      5.68797815	      9.09304403	     19.03357558	      6.76306581	      2.57699956	     -6.86403020
      7.42000000	    -10.05827483	     -3.73620041	      6.96150636	     -1.24250273	     -0.03354305	      2.06563564	     33.81745422	      2.03540379	    -15.00206960	    -14.37746540	     -4.43363123	     -0.49695066	      0.86331373	     -3.21349453	     -3.34114112	     -3.67767018	    -23.04058309	      3.86635400	      9.87568914	     21.83208861	      7.32691330	      3.41819662	     -6.89025911
      7.43000000	    -10.30391475	     -4.50202202	      6.77553700	     -1.22728653	     -0.03410784	      2.06644689	     34.09818364	      2.83023665	    -15.01195393	    -15.65137461	     -5.66990943	     -1.89712433	     -1.48128767	     -2.27844328	     -4.54136154	     -4.32356802	    -25.45789760	      1.41966491	     10.27883730	     24.63098260	      7.96174657	      4.28505349	     -6.87643377
      7.44000000	    -10.45796665	     -5.31242590	      6.56691161	     -1.21206254	     -0.03433238	      2.06725151	     34.31028912	      3.67180177	    -15.22286007	    -16.98638082	     -6.65986566	     -2.95413346	     -1.74407578	     -1.25677425	     -5.84622431	     -5.05112843	    -28.02861192	     -1.66597065	     10.51747313	     28.34492584	      8.48139748	      5.22299613	     -6.84173736
      7.45000000	    -10.75716687	     -5.97245125	      6.19798174	     -1.19693807	     -0.03464363	      2.06830998	     34.71576812	      4.45027758	    -15.27590430	    -18.44573689	     -7.39020964	     -3.89349594	     -0.04453953	      0.07848035	     -6.99774495	     -5.86618478	    -30.75535630	     -5.40573662	     10.33041487	     32.53478586	      9.09436534	      6.01299713	     -6.62460991
      7.46000000	    -10.63870498	     -6.66622982	      6.09444630	     -1.18182093	     -0.03435908	      2.06909736	     34.47976059	      5.21730504	    -15.62643657	    -19.61149827	     -7.93162706	     -4.79159765	      3.82087640	      1.15164685	     -8.21839039	     -6.25883431	    -33.45753577	     -9.93428105	      9.51794844	     38.05223850	      9.27566330	      6.82949996	     -6.73909097
      7.47000000	    -10.66610059	     -7.34413329	      5.87300143	     -1.16689723	     -0.03436235	      2.07016514	     34.28774244	      6.06901507	    -15.80637730	    -20.62252901	     -8.02995699	     -5.57268405	      7.43031659	      2.56878750	     -9.39641665	     -6.50153676	    -36.40029596	    -14.38794318	      8.44692730	     42.39568404	      9.55096640	      7.60711829	     -6.60981081
      7.48000000	    -10.62957617	     -8.17113899	      5.68347147	     -1.15219401	     -0.03440093	      2.07128374	     33.85008001	      7.13545911	    -15.91041230	    -21.32117896	     -7.69450685	     -6.28985934	      9.58502349	      4.10929782	    -10.71317689	     -6.45980397	    -39.52545332	    -18.44871114	      7.12410541	     45.74197482	      9.73458219	      8.52056862	     -6.52538332
